<svg width="40" height="41" viewBox="0 0 40 41" fill="none" xmlns="http://www.w3.org/2000/svg">
<rect x="0.00012207" y="0.5" width="40" height="40" rx="4" fill="#F6F7F9"/>
<path d="M27.7627 15.6539C27.1795 15.9119 26.5611 16.0813 25.9279 16.1566C26.5953 15.7574 27.0949 15.1291 27.3334 14.3889C26.707 14.7617 26.0203 15.0229 25.3045 15.1643C24.8237 14.6498 24.1865 14.3087 23.4918 14.1938C22.7971 14.0789 22.0839 14.1968 21.4631 14.5291C20.8423 14.8613 20.3487 15.3894 20.059 16.0311C19.7693 16.6729 19.6997 17.3924 19.8611 18.0777C18.5908 18.0141 17.3481 17.684 16.2137 17.1089C15.0793 16.5338 14.0785 15.7265 13.2763 14.7395C12.9924 15.2272 12.8432 15.7817 12.844 16.346C12.844 17.4536 13.4077 18.4322 14.2648 19.0051C13.7576 18.9891 13.2615 18.8521 12.818 18.6056V18.6453C12.8182 19.383 13.0734 20.0979 13.5405 20.6689C14.0076 21.2399 14.6578 21.6317 15.3809 21.778C14.91 21.9056 14.4163 21.9244 13.9371 21.833C14.141 22.468 14.5383 23.0233 15.0735 23.4212C15.6086 23.8191 16.2548 24.0397 16.9216 24.0521C16.2589 24.5726 15.5002 24.9573 14.6887 25.1843C13.8772 25.4113 13.0289 25.4762 12.1924 25.3752C13.6527 26.3143 15.3527 26.8129 17.0889 26.8113C22.9655 26.8113 26.1792 21.943 26.1792 17.721C26.1792 17.5835 26.1754 17.4445 26.1693 17.3085C26.7948 16.8564 27.3346 16.2964 27.7635 15.6547L27.7627 15.6539Z" fill="#07090D"/>
</svg>
