<svg width="80" height="44" viewBox="0 0 80 44" fill="none" xmlns="http://www.w3.org/2000/svg">
<path d="M23.2997 21.0413C22.6476 19.7849 22.1068 18.6875 22.1068 18.608C22.1068 18.5125 22.5363 18.4489 24.0154 18.4489L24.6515 19.7213C25.0014 20.421 25.3354 21.0254 25.399 21.0572C25.4785 21.1049 25.8284 20.5324 26.8781 18.4489H27.8324C28.3572 18.4489 28.7866 18.4966 28.7866 18.5762C28.7866 18.6398 28.2459 19.7054 27.5938 20.9459C26.4646 23.093 26.401 23.2679 26.401 25.2877H24.4925V24.2858C24.4925 23.3633 24.4289 23.1566 23.2997 21.0413Z" fill="white"/>
<path d="M29.2319 21.9797C29.216 20.1507 29.2638 18.608 29.3433 18.5603C29.4228 18.4966 30.218 18.4489 31.1245 18.4489C32.0152 18.4489 33.0967 18.5443 33.5102 18.6557C33.9237 18.7511 34.4644 19.0374 34.703 19.2918C34.9416 19.5304 35.196 19.9598 35.2437 20.2461C35.2915 20.5165 35.2915 21.0731 35.2278 21.4707C35.1483 21.9479 34.9575 22.3296 34.1941 23.0612L34.8302 24.0949C35.1801 24.6675 35.4187 25.1605 35.3551 25.2082C35.3074 25.2559 34.7984 25.2877 33.2398 25.2877L32.8104 24.3812C32.4128 23.5542 32.3015 23.4588 31.3313 23.3792V25.2877H29.2638L29.2319 21.9797Z" fill="white"/>
<path d="M36.9455 21.9956C37.6294 20.437 38.2496 19.0056 38.3292 18.8147C38.4723 18.4966 38.5995 18.4489 40.4762 18.433L40.8102 19.1964C41.0011 19.6099 41.6054 21.089 42.1621 22.4568C42.7187 23.8405 43.2277 24.9697 43.2913 24.9697C43.3708 24.9697 43.8957 24.254 45.5656 21.7888L44.5159 20.2461C43.9275 19.3873 43.4821 18.6398 43.514 18.5762C43.5458 18.4966 44.0388 18.4489 45.6451 18.4489L46.1222 19.2441C46.3767 19.6895 46.663 20.0393 46.7584 20.0393C46.8538 20.0393 47.1401 19.6895 47.8717 18.4489H48.985C49.6212 18.4489 50.0983 18.5125 50.0983 18.608C50.0983 18.6875 49.6689 19.3873 49.1441 20.1666C48.6192 20.93 48.1898 21.6457 48.1898 21.757C48.1898 21.8524 48.651 22.6158 49.2236 23.4269C49.7802 24.2222 50.2414 24.9856 50.2573 25.0969C50.2573 25.2241 49.9393 25.2877 48.0308 25.2877L47.4264 24.413C47.1083 23.92 46.7902 23.5224 46.7107 23.5383C46.6471 23.5383 46.3608 23.9359 45.5656 25.3036L41.1283 25.2082L40.7943 24.1585H38.0906L37.9316 24.6834C37.7725 25.1923 37.7407 25.2082 36.7706 25.2559C36.0231 25.2718 35.7686 25.24 35.7527 25.0651C35.7209 24.9379 36.2616 23.5701 36.9455 21.9956Z" fill="white"/>
<path d="M53.5972 25.2877L53.6131 21.8524L53.6291 18.4171L55.6489 18.4807C57.287 18.5284 57.7641 18.608 58.289 18.8783C58.6389 19.0692 59.0842 19.3873 59.2751 19.594C59.4659 19.7849 59.7363 20.2302 59.8635 20.5642C60.0066 20.8823 60.118 21.4707 60.118 21.8683C60.118 22.2659 60.0066 22.8544 59.8635 23.1884C59.7363 23.5065 59.4659 23.9518 59.2751 24.1426C59.0842 24.3494 58.6389 24.6675 58.289 24.8583C57.7482 25.1446 57.3347 25.2082 53.5972 25.2877Z" fill="white"/>
<path d="M60.7382 21.9638C60.7223 20.1507 60.7701 18.608 60.8337 18.5443C60.9132 18.4966 62.1696 18.4489 66.3206 18.4489V20.0393H62.8217V21.1526H66.0025V22.584L62.9012 22.6635L62.8217 23.6973H66.4797V25.2877H60.7541L60.7382 21.9638Z" fill="white"/>
<path d="M68.1337 22.1069C67.4816 20.4051 66.925 18.8783 66.8773 18.7193C66.7978 18.4648 66.8932 18.433 68.9289 18.5284L69.6128 20.6278C69.9945 21.7888 70.3603 22.7431 70.4239 22.7431C70.4875 22.7431 70.8533 21.7888 71.9666 18.5284L72.9686 18.4807C73.5093 18.4648 73.9547 18.4966 73.9547 18.5603C73.9706 18.6239 73.398 20.1507 71.4418 25.2082H69.3106L68.1337 22.1069Z" fill="white"/>
<path d="M74.7181 19.7531C74.9089 19.3396 75.2111 19.0533 75.7041 18.7988C76.1654 18.5762 76.7061 18.4489 77.215 18.4489C77.6604 18.4489 78.376 18.5443 78.8055 18.6875C79.2508 18.8147 79.6961 18.9738 79.8233 19.0374C79.9983 19.1328 79.9824 19.2918 79.7438 19.928C79.5848 20.3415 79.4098 20.6755 79.3621 20.6755C79.3144 20.6755 78.8532 20.5324 78.3283 20.3415C77.8035 20.1666 77.2309 20.0393 77.056 20.0712C76.8651 20.103 76.7379 20.2461 76.7379 20.437C76.7379 20.6914 76.9924 20.8346 77.9307 21.1685C78.5828 21.3912 79.3144 21.757 79.553 21.9638C79.9188 22.2818 79.9824 22.4886 79.9983 23.1407C80.0142 23.745 79.9188 24.0472 79.6484 24.3971C79.4575 24.6516 79.0599 24.9538 78.7736 25.081C78.4874 25.1923 77.7717 25.2877 77.1832 25.2718C76.5471 25.2718 75.8314 25.1605 75.4497 25.0015C75.0998 24.8424 74.6385 24.6198 74.0819 24.254L74.8294 22.7749L75.6723 23.2361C76.1972 23.5224 76.7379 23.6973 77.1355 23.6973C77.549 23.6973 77.8194 23.6019 77.8989 23.4429C77.9625 23.2997 77.9148 23.1248 77.7717 22.9975C77.6444 22.8703 77.0242 22.6317 76.388 22.4409C75.5451 22.2023 75.1475 21.9797 74.9089 21.6616C74.734 21.423 74.559 21.0254 74.5113 20.7868C74.4636 20.5483 74.559 20.0871 74.7181 19.7531Z" fill="white"/>
<path d="M0.906496 26.91C1.04963 26.7032 1.38362 26.4329 1.654 26.3056C1.94027 26.1784 2.38559 26.1148 2.70367 26.1625C3.00586 26.1943 3.43527 26.3692 3.65793 26.5283C3.88059 26.6873 4.16686 27.1326 4.2941 27.4984C4.50085 28.0392 4.62809 28.1823 5.08931 28.3096C5.39149 28.3891 6.29803 28.6117 8.50872 29.1366L9.24032 28.3891L8.82681 27.3076C8.49282 26.401 8.46101 26.2261 8.66776 26.1625C8.795 26.1148 9.01766 26.083 9.14489 26.083C9.27213 26.083 9.38346 26.1466 9.38346 26.242C9.38346 26.3215 9.52659 26.7986 9.70154 27.2758C9.97191 28.0074 10.0832 28.1505 10.4172 28.1505C10.6399 28.1505 11.0375 28.2618 11.292 28.3891C11.5623 28.5163 11.8804 28.8344 12.0077 29.1048C12.1349 29.3592 12.2462 29.7886 12.2462 30.059C12.2462 30.3135 12.1349 30.7429 12.0077 31.0133C11.8804 31.2677 11.5623 31.6017 11.292 31.729C11.0375 31.8562 10.5286 31.9675 10.1787 31.9675C9.73335 31.9675 9.39936 31.8403 9.06537 31.5699C8.795 31.3473 8.52463 30.9019 8.28606 29.9795L4.2941 28.9457L3.33984 29.9L3.9124 30.9656C4.23048 31.554 4.72351 32.381 5.02569 32.7945C5.47101 33.4148 5.63005 33.542 5.93224 33.4625C6.12309 33.4148 6.5684 33.3353 6.9183 33.2876C7.37952 33.224 7.74532 33.2876 8.23835 33.542C8.60415 33.717 9.03356 34.051 9.1926 34.2577C9.33574 34.4645 9.5425 34.7508 9.62202 34.8939C9.76516 35.1325 10.0196 35.1166 12.7233 34.7508C14.3456 34.5281 15.8247 34.3054 16.0314 34.2736C16.2223 34.2259 16.4608 34.0192 16.5404 33.7965C16.6358 33.5739 16.9539 33.2876 17.2561 33.1603C17.6219 33.0013 17.9717 32.9695 18.2421 33.0331C18.4648 33.0967 18.7988 33.3353 18.9578 33.5579C19.1168 33.7806 19.26 34.21 19.26 34.5122C19.26 34.8144 19.1646 35.1484 19.0532 35.2597C18.8942 35.4028 19.0373 35.7527 20.6914 38.5678L21.5184 38.5201C21.9796 38.4883 22.5522 38.5519 22.8066 38.6791C23.0611 38.7904 23.4746 39.1085 23.7291 39.3948C23.9676 39.6811 24.2062 40.0946 24.3334 40.7149L25.8125 40.3013C26.6236 40.0628 27.4825 39.7765 27.721 39.6652C27.9596 39.5379 28.3254 39.4425 28.5481 39.4425C28.8184 39.4425 28.9616 39.5379 28.9934 39.7447C29.0252 39.9833 28.7866 40.1423 27.7529 40.5399C27.0531 40.8103 26.0034 41.1443 25.4149 41.3033C24.5561 41.526 24.3175 41.6532 24.2539 41.9395C24.2221 42.1462 23.9835 42.5279 23.745 42.7983C23.5064 43.0687 23.1088 43.4027 22.8703 43.514C22.6317 43.6412 22.0909 43.7367 21.6774 43.7367C21.1844 43.7367 20.7232 43.6094 20.3574 43.3868C20.0552 43.1959 19.6735 42.8937 19.5304 42.7188C19.3872 42.5279 19.26 42.2894 19.26 42.178C19.2441 42.0667 19.1964 41.9554 19.1328 41.9077C19.0691 41.8759 18.3216 41.7168 17.4946 41.5737C16.6676 41.4305 15.9201 41.2715 15.8565 41.2079C15.777 41.1602 15.7929 40.9534 15.8883 40.7467C16.0632 40.3968 16.0791 40.3968 17.0652 40.6194C17.6059 40.7626 18.2898 40.858 18.5761 40.858C18.9896 40.8739 19.085 40.8103 19.085 40.5558C19.085 40.3809 19.26 40.0151 19.4826 39.7606C19.7053 39.4902 19.8803 39.1721 19.8803 39.0449C19.8803 38.9177 19.5145 38.1543 19.0532 37.375C18.3216 36.1185 18.1626 35.9436 17.7809 35.9436C17.5264 35.9436 17.1288 35.7527 16.3336 35.0689L13.1369 35.5301C11.3874 35.7845 9.89239 36.0708 9.82877 36.1662C9.76516 36.2617 9.71744 36.4843 9.71744 36.6593C9.71744 36.8978 10.131 37.2159 11.3079 37.8839C12.8506 38.7745 12.8983 38.7904 13.3595 38.5678C13.6776 38.4087 13.9957 38.361 14.2661 38.4406C14.4887 38.5042 14.8545 38.7586 15.0613 38.9972C15.268 39.2517 15.4271 39.6493 15.4271 39.9196C15.4271 40.2218 15.268 40.5558 14.9658 40.8739C14.6796 41.1602 14.3297 41.351 14.0911 41.351C13.8685 41.351 13.4867 41.2556 13.2482 41.1284C13.0096 41.0011 12.7233 40.7149 12.612 40.4922C12.5007 40.2695 12.4053 39.9355 12.4053 39.7606C12.4053 39.522 12.0077 39.2199 9.22441 37.6931L8.63596 38.1225C8.30197 38.361 7.74532 38.5837 7.39543 38.6155C6.96601 38.6632 6.52069 38.5837 6.01176 38.3451C5.45511 38.1066 5.13702 37.8203 4.85075 37.3273C4.61218 36.9137 4.46905 36.4048 4.45314 35.9754C4.45314 35.6096 4.56447 35.0689 4.96208 34.2736L4.08734 32.9218C3.61022 32.1743 3.05357 31.22 2.84681 30.8065C2.64006 30.393 2.35378 30.059 2.22655 30.059C2.09931 30.059 1.76532 29.9159 1.47905 29.7409C1.19277 29.566 0.842879 29.1843 0.699741 28.898C0.524794 28.564 0.477081 28.1982 0.540698 27.8324C0.604315 27.5302 0.763358 27.1008 0.906496 26.91Z" fill="white"/>
<path d="M29.1524 30.059C29.1047 29.2161 29.1206 29.1525 29.6773 28.6594C30.1226 28.2618 30.3771 28.1505 30.9019 28.1505C31.2995 28.1505 31.7925 28.2777 32.0947 28.4686C32.381 28.6435 32.6832 28.9616 32.7627 29.1843C32.9217 29.5819 32.9376 29.5819 34.9098 29.5819C36.1344 29.5819 36.8978 29.5183 36.8978 29.4228C36.8978 29.3274 37.0568 29.1207 37.2636 28.9457C37.4862 28.739 37.8361 28.6117 38.2178 28.6276C38.6632 28.6276 38.9176 28.739 39.2198 29.0571C39.4902 29.3751 39.6174 29.6773 39.6174 30.0908C39.6015 30.5043 39.4902 30.8065 39.2198 31.0928C38.9972 31.3155 38.695 31.4904 38.5359 31.4904C38.361 31.4904 37.8998 32.0152 37.2795 32.9536C36.7387 33.7647 35.8004 34.9575 35.2119 35.6096C34.6076 36.2458 33.9873 36.8342 33.8442 36.9137C33.6374 37.0251 33.5261 36.9774 33.3989 36.7388C33.2716 36.4684 33.4148 36.2299 34.4803 35.1007C35.1483 34.385 36.0708 33.2717 36.5002 32.6514C37.2795 31.5222 37.2954 31.4904 36.8183 30.5202L32.9217 30.5361L32.7309 30.9656C32.6195 31.2041 32.3015 31.5381 31.5063 32.047L31.4903 35.9436L31.9675 36.214C32.2219 36.373 32.54 36.6911 32.6832 36.9296C32.8104 37.1682 32.9217 37.6612 32.9217 38.0111C32.9217 38.4405 32.8104 38.7745 32.5559 39.0767C32.3492 39.3153 31.9675 39.6175 31.713 39.7288C31.4426 39.856 31.0132 39.9037 30.6633 39.856C30.2498 39.7924 29.9158 39.5857 29.5818 39.204C29.216 38.7745 29.1047 38.4883 29.1047 37.2954L27.6733 36.5002C26.8781 36.0549 26.2419 35.6732 26.2419 35.6255C26.2579 35.5778 26.3374 35.4187 26.4487 35.2597C26.6236 35.0052 26.7509 35.0529 29.5023 36.5639L29.9794 36.2617C30.454 35.9611 30.4566 35.9123 30.5348 34.4253L30.5361 34.4009C30.5838 33.542 30.5997 32.6355 30.5838 32.3969C30.552 32.1584 30.4725 31.9675 30.3771 31.9675C30.2975 31.9675 29.7409 32.3333 29.1524 32.7786C28.564 33.224 27.5779 33.8442 26.9576 34.1623C26.3533 34.4645 25.6535 34.9257 25.4149 35.1643C25.0968 35.4983 24.8265 35.6255 24.413 35.6255C24.0154 35.6255 23.7291 35.4983 23.3792 35.1484C23.0611 34.8303 22.9021 34.5122 22.9021 34.1941C22.9021 33.9078 23.077 33.5102 23.2997 33.2399C23.6177 32.8582 23.8245 32.7627 24.3334 32.7627C24.8424 32.7627 25.065 32.8582 25.9557 33.7965L26.8145 33.3194C27.2916 33.049 28.0868 32.5401 28.564 32.1584C29.216 31.6494 29.4069 31.4268 29.3115 31.2041C29.2638 31.061 29.1842 30.5361 29.1524 30.059Z" fill="white"/>
<path d="M45.995 32.6355C46.1859 32.3492 46.5676 31.9993 46.8379 31.888C47.0924 31.7608 47.4741 31.6494 47.6809 31.6494C47.8717 31.6494 48.2852 31.7608 48.5874 31.888C48.8896 32.0152 49.1441 32.2061 49.16 32.3174C49.16 32.4287 49.0645 32.6037 48.9532 32.715C48.7942 32.8741 48.6828 32.8582 48.4284 32.6832C48.2534 32.556 47.9512 32.4447 47.7445 32.4447C47.5536 32.4447 47.2037 32.6196 46.997 32.8423C46.7743 33.0649 46.5994 33.3989 46.5994 33.5898C46.5994 33.7965 46.7425 34.1464 46.9175 34.385C47.1295 34.6818 47.384 34.8303 47.6809 34.8303C47.9194 34.8303 48.2534 34.7349 48.4284 34.6076C48.6828 34.4327 48.7942 34.4168 48.9532 34.5599C49.0645 34.6712 49.16 34.8303 49.16 34.9416C49.1441 35.0529 48.8896 35.2597 48.5874 35.3869C48.2852 35.5142 47.8558 35.6255 47.6331 35.6255C47.4105 35.6255 47.0288 35.5142 46.7584 35.3869C46.5039 35.2597 46.1381 34.9098 45.9632 34.6235C45.7883 34.3373 45.6451 33.8919 45.6451 33.6375C45.6451 33.3671 45.8042 32.9218 45.995 32.6355Z" fill="white"/>
<path d="M50.321 32.6355C50.4641 32.3492 50.814 32.0152 51.1003 31.888C51.3865 31.7608 51.816 31.6494 52.0545 31.6494C52.2931 31.6494 52.7543 31.7767 53.0724 31.9198C53.5018 32.1266 53.7404 32.3969 53.963 32.9218C54.2493 33.5898 54.2493 33.6852 54.0267 34.2736C53.8835 34.6235 53.5813 35.037 53.3269 35.212C53.0883 35.371 52.6271 35.546 52.3249 35.5937C51.975 35.6414 51.5456 35.5619 51.148 35.371C50.7981 35.1961 50.4323 34.8621 50.3051 34.5917C50.1619 34.3214 50.0665 33.8919 50.0665 33.6375C50.0665 33.3671 50.1778 32.9218 50.321 32.6355Z" fill="white"/>
<path d="M55.1877 35.4665V33.6375V31.8085H56.46C57.7005 31.8085 57.7482 31.8244 58.289 32.3651C58.7661 32.8264 58.8456 33.0331 58.8456 33.6375C58.8456 34.2259 58.7661 34.4486 58.3049 34.9098C57.7801 35.4506 57.7482 35.4665 55.1877 35.4665Z" fill="white"/>
<path d="M59.9589 35.4665V33.6375V31.8085H61.4698C62.8217 31.8085 62.9807 31.8403 62.9489 32.0789C62.9171 32.3174 62.7104 32.3651 61.9152 32.3969C60.9609 32.4447 60.9132 32.4606 60.9132 32.8423C60.9132 33.2081 60.9609 33.2399 61.7879 33.2399C62.5672 33.2399 62.6627 33.2717 62.6627 33.5579C62.6627 33.8283 62.5672 33.876 61.7879 33.876C60.9291 33.876 60.9132 33.876 60.9132 34.8303H61.947C62.8853 34.8303 62.9807 34.8621 62.9807 35.1484C62.9807 35.4346 62.8853 35.4665 59.9589 35.4665Z" fill="white"/>
<path d="M16.2382 0.842925C16.3655 0.652074 16.6358 0.381702 16.8585 0.254468C17.0812 0.11133 17.5106 0 17.8127 0C18.1149 0 18.5762 0.127234 18.8465 0.286276C19.1169 0.445319 19.4032 0.763403 19.5145 0.970159C19.6099 1.17691 19.7372 1.47909 19.7849 1.63814C19.8644 1.8608 20.0871 1.90851 21.2799 1.90851C22.0433 1.90851 23.2838 2.01984 24.0472 2.14707C24.8265 2.27431 26.0034 2.57649 27.9119 3.21266L28.4686 2.70372C28.7708 2.43335 29.2797 2.13117 29.5819 2.03574C29.8841 1.94032 30.393 1.90851 30.6952 1.97213C30.9974 2.01984 31.4586 2.22659 31.729 2.40154C31.9993 2.59239 32.3492 2.92638 32.5242 3.16494C32.715 3.41941 32.8582 3.91244 32.89 4.45319C32.9377 5.05755 32.89 5.47106 32.715 5.80505C32.4606 6.26627 32.4765 6.29808 32.9377 6.7593C33.208 7.01377 34.0192 7.8726 34.719 8.636C35.9595 9.97196 36.0072 10.0515 35.7368 10.3059C35.4824 10.5604 35.3551 10.4809 33.5898 8.73143L33.5886 8.73029C31.7449 6.90243 31.7289 6.88658 31.2836 7.10919C30.886 7.30005 30.8542 7.37957 30.9337 7.99983C30.9815 8.36563 31.0928 9.49483 31.1723 10.4968C31.2677 11.7691 31.3791 12.3417 31.5222 12.3894C31.6335 12.4371 31.888 12.628 32.0788 12.8347C32.4128 13.1687 32.5719 13.2005 34.1146 13.2005C35.6732 13.2005 35.7845 13.1846 35.7845 12.8824C35.7845 12.7075 36.0231 12.294 36.3253 11.9759C36.8183 11.4192 36.9455 11.3715 37.693 11.3715C38.4405 11.3715 38.5678 11.4192 39.0608 11.9759C39.4902 12.4371 39.6016 12.6916 39.6016 13.2005C39.6016 13.5504 39.4743 14.0593 39.3153 14.3138C39.1721 14.5842 38.8063 14.9023 38.5201 15.0295C38.2497 15.1567 37.8521 15.2681 37.6453 15.2681C37.4545 15.2681 37.0887 15.1567 36.8183 15.0136C36.5479 14.8705 36.214 14.5842 36.0549 14.3774C35.8004 14.0116 35.6891 13.9957 34.1146 13.9957C32.5719 13.9957 32.4446 14.0275 32.3651 14.3138C32.3174 14.4888 32.0948 14.775 31.8403 14.95C31.6017 15.1408 31.22 15.284 30.9656 15.2681C30.7111 15.2681 30.3453 15.0772 30.059 14.7909C29.7409 14.4729 29.5819 14.1548 29.5819 13.8367C29.5819 13.5663 29.6614 13.2005 29.7568 13.0097C29.9159 12.6916 29.8682 12.5962 29.4069 12.1986C29.1048 11.9441 28.3414 11.3874 27.7052 10.958C26.6237 10.2264 26.5442 10.1946 26.1943 10.4173C26.0034 10.5445 25.574 10.6558 25.24 10.6558C24.7788 10.6558 24.572 10.5604 24.254 10.1787C24.0313 9.90834 23.8564 9.59026 23.8564 9.46302C23.8564 9.33579 23.6973 9.17675 23.4906 9.12903C23.2997 9.06542 22.1069 9.0018 20.8346 8.96999C18.7988 8.92228 18.5125 8.89047 18.433 8.636C18.3694 8.47696 18.3535 8.30201 18.3853 8.2384C18.4171 8.15887 19.4032 8.11116 20.5483 8.11116C21.7093 8.11116 22.9498 8.19068 23.2997 8.2702C23.745 8.36563 24.0631 8.36563 24.3812 8.22249C24.6198 8.11116 24.8106 7.98393 24.8106 7.92031C24.8106 7.84079 25.0492 7.79308 25.3195 7.79308C25.6694 7.77717 26.0034 7.92031 26.2738 8.19068C26.5283 8.41334 26.7191 8.76324 26.7191 8.9859C26.7191 9.30398 26.8941 9.47893 27.6257 9.89244C28.1346 10.1787 28.9775 10.7672 30.4407 12.0077L30.3294 10.4968C30.2658 9.66978 30.1544 8.60419 30.0908 8.15887C29.9954 7.39547 29.9318 7.31595 29.5024 7.20462C29.232 7.141 28.8185 6.91834 28.564 6.69568C28.3095 6.47302 28.0074 6.09132 27.896 5.85276C27.7688 5.59829 27.6734 5.08936 27.6734 3.97606L26.3533 3.56255C25.6376 3.33989 24.3653 3.05361 23.5383 2.92638C22.7113 2.81505 21.5025 2.70372 20.8664 2.70372C20.2461 2.70372 19.6894 2.75143 19.6576 2.83095C19.6258 2.89457 20.3256 3.56255 21.2004 4.34186C22.091 5.10526 23.0293 5.91638 23.2997 6.13904C23.7768 6.53664 23.7768 6.55255 23.4588 6.83882C23.1407 7.141 23.1089 7.1251 19.0533 3.57845L18.3058 3.81702L18.2963 3.82003C17.5581 4.05561 17.5403 4.0613 17.0493 5.40744C16.779 6.15494 16.5404 6.87063 16.5404 6.99787C16.5404 7.1251 16.6835 7.33185 16.8585 7.42728C17.0334 7.53861 17.3197 7.93622 17.4947 8.30201C17.6696 8.68371 17.8127 9.22446 17.8127 9.49483C17.8127 9.78111 17.7173 10.2582 17.606 10.5286C17.4788 10.8149 17.1289 11.292 16.8108 11.5624C16.4768 11.8646 15.9679 12.1349 15.6339 12.1826C15.2999 12.2463 14.7432 12.1986 14.3933 12.0872C14.0434 11.9759 13.5345 11.6578 13.2641 11.3874C12.9938 11.1171 12.6757 10.5922 12.5803 10.2264C12.4689 9.81292 12.294 9.51073 12.1349 9.47893C11.9759 9.43121 10.8467 9.25627 7.39547 8.71552L6.7593 9.14494C6.28217 9.46302 5.9959 9.54254 5.646 9.47893C5.39154 9.43121 5.00984 9.20855 4.80308 8.9859C4.61223 8.76324 4.45319 8.38153 4.45319 8.11116C4.45319 7.85669 4.53271 7.4909 4.61223 7.31595C4.69175 7.141 4.99393 6.88654 5.2484 6.7593C5.50287 6.63207 5.91638 6.55255 6.17084 6.60026C6.40941 6.64797 6.7593 6.83882 6.93425 7.02967C7.1251 7.23643 7.31595 7.5068 7.34776 7.63403C7.41138 7.80898 8.09526 7.98393 9.98786 8.2702C11.4033 8.49286 12.5643 8.6201 12.5643 8.55648C12.5643 8.47696 12.8029 8.17478 13.0733 7.84079C13.3596 7.52271 13.8367 7.17281 14.1071 7.04558C14.3933 6.93425 14.8387 6.83882 15.109 6.83882C15.4907 6.83882 15.6339 6.7434 15.8088 6.31398C15.936 6.04361 16.2064 5.32792 16.3973 4.73946C16.7313 3.78521 16.7472 3.64207 16.5404 3.41941C16.3177 3.18085 16.1746 3.19675 14.8228 3.64207C14.0275 3.91244 12.9142 4.35776 12.3735 4.62813C11.8168 4.89851 10.9421 5.39154 10.4173 5.69372C9.89244 6.0118 9.16084 6.53664 8.79504 6.87063C8.41334 7.20462 8.07935 7.45909 8.04754 7.44318C8.01574 7.41138 7.92031 7.23643 7.80898 7.04558C7.64994 6.71159 7.71356 6.61616 8.77914 5.82095C9.41531 5.34382 10.624 4.59632 11.4511 4.16691C12.2781 3.72159 13.5981 3.14904 14.3933 2.87867C15.8247 2.40154 15.8247 2.40154 15.9201 1.79718C15.9679 1.46319 16.111 1.03378 16.2382 0.842925Z" fill="#1976D2"/>
<path d="M2.81505 13.0415C3.32399 12.0395 3.94425 10.9262 4.18281 10.5604C4.5009 10.0992 4.72356 9.92424 4.91441 9.98786C5.07345 10.0197 5.21659 10.131 5.23249 10.2423C5.2484 10.3378 4.94622 10.9262 4.58042 11.5306C4.21462 12.1349 3.65797 13.2164 3.32399 13.9162C3.0059 14.616 2.68782 15.3476 2.6401 15.5543C2.57649 15.777 2.60829 15.9042 2.75143 15.9042C2.84686 15.9042 3.92835 15.6339 5.13707 15.2999C6.95015 14.8228 7.34776 14.6478 7.41138 14.3933C7.44318 14.2184 7.63403 13.9162 7.84079 13.7095C8.12707 13.4073 8.33382 13.3437 8.96999 13.3914C9.73339 13.4391 9.7493 13.4232 10.4809 12.5803C10.8785 12.119 11.4033 11.5942 11.6419 11.4351C12.0713 11.1489 12.1031 11.1489 12.3099 11.4192C12.5166 11.6578 12.4212 11.8168 11.3874 12.8824C10.465 13.8367 10.2423 14.1548 10.29 14.4729C10.3378 14.6955 10.29 15.0613 10.1946 15.3158C10.0992 15.5543 9.7652 15.9042 9.44712 16.111C9.03361 16.3655 8.79504 16.6835 8.55648 17.3356C8.38153 17.8127 8.15887 18.5921 8.06345 19.0692C7.8885 19.8644 7.8885 19.9439 8.19068 20.103C8.36563 20.1984 8.73143 20.4847 9.0018 20.755C9.28808 21.0254 9.59026 21.5343 9.70159 21.9478C9.84472 22.4886 9.84472 22.8226 9.71749 23.2679C9.62206 23.586 9.35169 24.079 9.11313 24.3494C8.85866 24.6357 8.47696 24.9538 8.2384 25.0651C7.98393 25.1923 7.5068 25.2877 7.15691 25.2877C6.80701 25.2877 6.23446 25.1446 5.88457 24.9697C5.53468 24.7947 5.10526 24.4607 4.93031 24.2222C4.75537 23.9677 4.58042 23.5224 4.5168 23.2202C4.45319 22.918 4.45319 22.3932 4.5168 22.0751C4.56452 21.7411 4.80308 21.2481 5.04164 20.9618C5.29611 20.6914 5.86866 20.2938 6.31398 20.0871C7.02967 19.769 7.15691 19.6576 7.15691 19.2918C7.15691 19.0374 7.36366 18.2422 7.61813 17.4947C8.06345 16.2223 8.06345 16.1269 7.82489 15.8565C7.57042 15.5862 7.45909 15.6021 5.2643 16.1746C3.06952 16.7631 2.97409 16.7949 2.76734 17.3038C2.6401 17.5742 2.40154 17.8923 2.22659 17.9718C1.92441 18.1308 1.90851 18.2899 1.90851 25.2877H0.954254V18.2899L0.477127 17.8127C0.127234 17.4629 0 17.1925 0 16.779C0 16.3814 0.127234 16.0951 0.461223 15.7452C0.779308 15.4112 1.08149 15.2681 1.41548 15.2681C1.70175 15.2681 1.90851 15.1885 1.90851 15.0772C1.90851 14.9659 2.30611 14.0434 2.81505 13.0415Z" fill="#1976D2"/>
<path d="M17.0335 1.62224C17.1448 1.41548 17.3834 1.19282 17.5583 1.1133C17.7651 1.03378 18.0037 1.06559 18.2104 1.19282C18.3854 1.30415 18.5921 1.51091 18.6875 1.63814C18.7989 1.81309 18.783 2.01984 18.6398 2.29021C18.5444 2.51287 18.3217 2.75144 18.1627 2.79915C18.0196 2.86277 17.7333 2.86277 17.5265 2.79915C17.3357 2.75144 17.0971 2.54468 17.0017 2.33793C16.8745 2.06755 16.8745 1.89261 17.0335 1.62224Z" fill="black"/>
<path d="M28.8026 4.37367L29.3434 3.84883V3.86473C29.6615 3.54665 30.0432 3.33989 30.2817 3.33989C30.5203 3.33989 30.8861 3.49894 31.1088 3.68979C31.395 3.92835 31.5382 4.23053 31.5541 4.56452C31.57 4.89851 31.4427 5.20069 31.1724 5.47106C30.9338 5.72553 30.5998 5.88457 30.3294 5.88457C30.0909 5.88457 29.7728 5.83686 29.6297 5.75734C29.4865 5.69372 29.2321 5.35973 28.8026 4.37367Z" fill="black"/>
<path d="M13.8367 9.3676C13.8527 9.17675 14.0276 8.85866 14.2344 8.65191C14.4888 8.38684 14.791 8.2543 15.1409 8.2543C15.459 8.2543 15.8089 8.39744 16.0315 8.6201C16.2542 8.84276 16.3814 9.16085 16.3814 9.49483C16.3814 9.81292 16.2383 10.1469 15.9838 10.4014C15.7612 10.6399 15.4272 10.799 15.1568 10.799C14.9182 10.799 14.6002 10.7036 14.457 10.5922C14.3139 10.4809 14.123 10.2423 14.0276 10.0515C13.9163 9.84473 13.8367 9.54255 13.8367 9.3676Z" fill="black"/>
<path d="M36.8979 13.6458C36.6752 13.2641 36.6911 13.1846 36.9456 12.8029C37.1365 12.5166 37.3591 12.3894 37.6931 12.3894C38.0271 12.3894 38.2498 12.5166 38.4406 12.8029C38.6951 13.1846 38.711 13.2641 38.4883 13.6458C38.2975 13.9639 38.1066 14.0594 37.6931 14.0594C37.2796 14.0594 37.0887 13.9639 36.8979 13.6458Z" fill="black"/>
<path d="M0.63623 16.7631C0.63623 16.6358 0.779369 16.3814 0.954315 16.2064C1.12926 16.0315 1.32011 15.8883 1.38373 15.8883C1.46325 15.8883 1.67001 15.9997 1.86086 16.1269C2.06761 16.2541 2.22665 16.5086 2.22665 16.6836C2.22665 16.8585 2.11532 17.113 1.97219 17.2402C1.84495 17.3674 1.59048 17.4788 1.41554 17.4788C1.2565 17.4788 1.00203 17.3674 0.874794 17.2402C0.74756 17.113 0.63623 16.8903 0.63623 16.7631Z" fill="black"/>
<path d="M31.3314 21.9319V20.9777V20.0234H32.1266C32.7787 20.0234 32.9695 20.0871 33.1763 20.3892C33.3353 20.6119 33.3831 20.8982 33.3353 21.1845C33.2717 21.4389 33.0809 21.6775 32.8423 21.7729C32.6197 21.8683 32.1902 21.9319 31.3314 21.9319Z" fill="black"/>
<path d="M55.5536 22.0274C55.5218 21.1526 55.5536 20.3415 55.6013 20.2143C55.6808 20.0393 55.8717 20.0075 56.4442 20.0871C56.8736 20.1507 57.3348 20.3415 57.5416 20.5483C57.7961 20.7868 57.9392 21.1367 57.9869 21.6934C58.0505 22.3137 58.0028 22.5999 57.7484 23.0134C57.5257 23.3633 57.2553 23.5542 56.9054 23.6178C56.6191 23.6655 56.2056 23.6814 55.983 23.6496C55.586 23.602 55.5854 23.5702 55.5537 22.035L55.5536 22.0274Z" fill="black"/>
<path d="M38.6474 22.7272L38.9813 21.7729C39.1563 21.2481 39.379 20.8187 39.4585 20.8187C39.538 20.8187 39.7129 21.1526 39.8402 21.5821C39.9674 21.9956 40.0787 22.425 40.0787 22.5363C40.0787 22.6635 39.8243 22.7272 38.6474 22.7272Z" fill="black"/>
<path d="M6.07548 21.916C6.18681 21.7411 6.40947 21.5343 6.60032 21.4548C6.77527 21.3753 7.04564 21.3117 7.20468 21.3117C7.34782 21.2958 7.69771 21.5025 7.95218 21.7729C8.22255 22.0433 8.42931 22.425 8.42931 22.6476C8.42931 22.8703 8.25436 23.2202 8.0317 23.4429C7.77723 23.7132 7.47505 23.8405 7.12516 23.8405C6.80708 23.8405 6.45718 23.6973 6.23452 23.4747C6.02777 23.2838 5.88463 22.9339 5.88463 22.6954C5.88463 22.4409 5.96415 22.1069 6.07548 21.916Z" fill="black"/>
<path d="M1.55868 28.1028C1.54277 27.9119 1.67001 27.6257 1.82905 27.4666C1.98809 27.3076 2.25846 27.1803 2.44931 27.1803C2.64016 27.1803 2.91054 27.3076 3.06958 27.4666C3.22862 27.6098 3.35586 27.896 3.33995 28.1028C3.33995 28.2936 3.22862 28.564 3.08548 28.6912C2.95825 28.8185 2.67197 28.9298 2.44931 28.9298C2.24256 28.9298 1.95628 28.8185 1.82905 28.6912C1.70181 28.564 1.57458 28.2936 1.55868 28.1028Z" fill="black"/>
<path d="M9.38356 30.0113C9.38356 29.8523 9.5267 29.5819 9.70165 29.4069C9.87659 29.232 10.1311 29.0889 10.2583 29.0889C10.3855 29.0889 10.6718 29.2638 10.8945 29.4865C11.1807 29.7727 11.2603 29.9795 11.1966 30.2499C11.1489 30.4407 11.0376 30.6634 10.9581 30.7429C10.8945 30.8224 10.5923 30.886 10.306 30.886C9.97202 30.886 9.70165 30.7747 9.57441 30.5839C9.46308 30.4089 9.38356 30.1544 9.38356 30.0113Z" fill="black"/>
<path d="M30.0591 30.0113C30.0591 29.8523 30.2022 29.5819 30.3772 29.4069C30.5521 29.232 30.8066 29.0889 30.9338 29.0889C31.061 29.0889 31.3473 29.2638 31.57 29.4865C31.7926 29.7091 31.9676 29.9477 31.9676 30.0431C31.9676 30.1385 31.7926 30.3771 31.57 30.5998C31.2837 30.886 31.0769 30.9656 30.8225 30.9019C30.6157 30.8542 30.3613 30.6952 30.2499 30.5361C30.1386 30.393 30.0591 30.1544 30.0591 30.0113Z" fill="black"/>
<path d="M50.9731 33.6216C50.9731 33.1922 51.0845 32.9536 51.3548 32.7309C51.5616 32.5719 51.8956 32.4287 52.1023 32.4287C52.3091 32.4287 52.659 32.6037 52.8817 32.8264C53.1043 33.049 53.2793 33.3989 53.2793 33.6216C53.2793 33.8442 53.1043 34.1941 52.8817 34.4168C52.6749 34.6394 52.3409 34.8144 52.1342 34.8144C51.9274 34.8303 51.5934 34.6871 51.3708 34.5122C51.0686 34.2895 50.9731 34.051 50.9731 33.6216Z" fill="black"/>
<path d="M56.142 34.8144V33.6216V32.4287H56.6987C57.0486 32.4287 57.3826 32.556 57.5734 32.7468C57.7643 32.9377 57.8915 33.2717 57.8915 33.6216C57.8915 33.9715 57.7643 34.3054 57.5734 34.4963C57.3826 34.6871 57.0486 34.8144 56.142 34.8144Z" fill="black"/>
<path d="M17.1448 34.7349C16.9699 34.4009 16.9858 34.3054 17.2403 34.0192C17.3993 33.8442 17.6697 33.7011 17.8287 33.7011C18.0037 33.7011 18.2422 33.8124 18.3695 33.9396C18.4967 34.0669 18.608 34.3054 18.608 34.4645C18.608 34.6076 18.5285 34.8303 18.4172 34.9416C18.3058 35.037 18.0196 35.1325 17.781 35.1325C17.4629 35.1325 17.2721 35.0211 17.1448 34.7349Z" fill="black"/>
<path d="M20.7233 40.2536C20.8823 40.0628 21.1527 39.9037 21.3276 39.8719C21.4867 39.8401 21.8525 39.8719 22.107 39.9355C22.3773 40.0151 22.6477 40.2059 22.7431 40.3809C22.8385 40.5558 22.9022 40.9216 22.9022 41.1761C22.9022 41.4464 22.759 41.7963 22.5841 41.9713C22.4091 42.1462 22.1388 42.3053 21.9956 42.3053C21.8366 42.3212 21.5662 42.3053 21.3913 42.2894C21.2163 42.2735 20.93 42.1303 20.7551 41.9554C20.5642 41.7645 20.437 41.4305 20.437 41.1125C20.437 40.8103 20.5642 40.4286 20.7233 40.2536Z" fill="black"/>
</svg>
